<svg width="119" height="173" viewBox="0 0 119 173" fill="none" xmlns="http://www.w3.org/2000/svg">
<path d="M80.2905 79.4037L81.0321 79.2918L81.0306 79.2818L81.0288 79.2719L80.2905 79.4037ZM51.139 152.909L50.4193 153.12L50.8629 154.633L51.7568 153.334L51.139 152.909ZM48.6147 144.3L49.3344 144.089L48.7052 141.944L47.9133 144.035L48.6147 144.3ZM44.5751 154.968L43.8516 155.165L44.4595 157.391L45.2765 155.233L44.5751 154.968ZM41.6615 144.3L42.385 144.103L41.9081 142.357L41.0103 143.928L41.6615 144.3ZM38.5711 149.708L38.6787 150.451L39.0408 150.398L39.2223 150.081L38.5711 149.708ZM33.1631 145.846L33.599 145.235L33.5699 145.214L33.5389 145.197L33.1631 145.846ZM20.127 79.7051L19.4098 79.4856L20.6541 80.2386L20.127 79.7051ZM84.1534 106.444L83.5293 106.028L83.515 106.05L83.5022 106.072L84.1534 106.444ZM34.905 115.415L34.8125 114.671L33.2527 114.865L34.3846 115.955L34.905 115.415ZM54.8705 112.936L55.4467 113.416L56.662 111.958L54.7781 112.192L54.8705 112.936ZM35.4808 20.6261L36.2232 20.5199L35.9742 18.7794L34.8903 20.1638L35.4808 20.6261ZM36.2534 26.0254L35.511 26.1316L35.7534 27.8263L36.8348 26.4991L36.2534 26.0254ZM56.3405 1.37329L57.0038 1.02322L56.4749 0.0210656L55.7591 0.899533L56.3405 1.37329ZM71.0195 29.1862L70.3562 29.5362L70.8886 30.545L71.6038 29.6564L71.0195 29.1862ZM84.1534 12.8666L84.8668 12.6354L84.4391 11.3153L83.5691 12.3963L84.1534 12.8666ZM94.1969 43.8652L93.4834 44.0964L93.7622 44.9568L94.5561 44.5236L94.1969 43.8652ZM102.695 39.2283L103.42 39.0348L103.174 38.1129L102.336 38.5699L102.695 39.2283ZM87.2437 101.809L87.8677 102.225L87.8937 102.186L87.9146 102.144L87.2437 101.809ZM101.088 151.831L101.471 151.186L101.414 151.152L101.352 151.128L101.088 151.831ZM33.4515 150.45L33.5321 151.196L33.5456 151.195L33.5591 151.193L33.4515 150.45ZM81.4844 167.314L80.7389 167.232L81.4844 167.314ZM106.509 53.5069L105.784 53.7004L106.509 53.5069ZM36.2344 116.696L36.7548 116.156L36.2344 116.696ZM52.4767 115.809L51.9005 115.328L52.4767 115.809ZM64.7703 113.827L64.0349 113.974L64.7703 113.827ZM78.6233 113.13L78.2753 112.466L78.6233 113.13ZM82.4295 109.461L81.7783 109.089L82.4295 109.461ZM70.0044 117.645L69.6564 116.98L70.0044 117.645ZM28.5622 111.299L28.3144 110.591L28.5622 111.299ZM36.0967 99.8057L35.4187 99.4851L36.0967 99.8057ZM39.5295 80.2005L38.8126 80.421L39.5295 80.2005ZM38.7917 93.7865L39.4791 94.0865L38.7917 93.7865ZM82.3258 159.633L81.5803 159.551L82.3258 159.633ZM31.0741 75.6804L30.9359 76.4176L31.0741 75.6804ZM21.7356 74.4488L22.4528 74.6683L21.7356 74.4488ZM2.08923 167.624L1.41841 167.288L2.08923 167.624ZM63.9319 68.9234L63.6686 69.6257L63.9319 68.9234ZM57.8739 68.3968L58.0121 69.1339L57.8739 68.3968ZM104.781 154.02L105.164 153.375L104.781 154.02ZM63.9576 75.3278L63.6154 75.9952L63.9576 75.3278ZM25.8569 151.335L25.7728 150.59L25.8569 151.335ZM59.8483 74.1102L59.6856 73.3781L59.8483 74.1102ZM62.1615 74.4069L62.5037 73.7395L62.1615 74.4069ZM51.166 69.6545L51.3043 70.3917L51.166 69.6545ZM91.6619 148.296L91.9253 147.594L91.6619 148.296ZM80.3353 145.869L80.4736 145.132L80.3353 145.869ZM67.956 141.935L68.4543 141.374L67.956 141.935ZM21.0888 113.947L20.3852 114.207L21.0888 113.947ZM66.3827 69.8425L66.6461 69.1402L66.3827 69.8425ZM15.2355 93.7658L15.9063 93.4305L15.2355 93.7658ZM77.2009 62.1023L76.4626 62.2341L77.2009 62.1023ZM37.943 104.76L37.6797 105.462L37.943 104.76ZM22.4078 139.619L22.7836 138.97L22.4078 139.619ZM89.308 168.848L90.0291 169.055L89.308 168.848ZM32.4385 70.1389L32.3454 70.8831L32.4385 70.1389ZM67.9331 138.991L67.7029 138.277L67.9331 138.991ZM53.1333 150.011L53.7511 150.436L53.1333 150.011ZM93.3815 159.376L93.9062 159.912L93.3815 159.376ZM90.7537 163.788L91.4749 163.994L90.7537 163.788ZM29.0453 69.7148L29.1383 68.9705L29.0453 69.7148ZM68.8722 138.688L69.1025 139.402L68.8722 138.688ZM76.4626 62.2341L79.5522 79.5356L81.0288 79.2719L77.9393 61.9704L76.4626 62.2341ZM79.5489 79.5156L85.7295 120.462L87.2127 120.239L81.0321 79.2918L79.5489 79.5156ZM68.642 137.974L67.7029 138.277L68.1634 139.705L69.1025 139.402L68.642 137.974ZM52.5155 149.586L50.5211 152.483L51.7568 153.334L53.7511 150.436L52.5155 149.586ZM51.8587 152.698L49.3344 144.089L47.895 144.511L50.4193 153.12L51.8587 152.698ZM47.9133 144.035L43.8737 154.702L45.2765 155.233L49.3161 144.566L47.9133 144.035ZM45.2986 154.77L42.385 144.103L40.938 144.498L43.8516 155.165L45.2986 154.77ZM41.0103 143.928L37.92 149.336L39.2223 150.081L42.3126 144.673L41.0103 143.928ZM39.0071 149.098L33.599 145.235L32.7272 146.456L38.1352 150.319L39.0071 149.098ZM33.5389 145.197L22.7836 138.97L22.032 140.268L32.7873 146.495L33.5389 145.197ZM16.4316 124.339L19.9874 108.93L18.5258 108.593L14.97 124.002L16.4316 124.339ZM19.9979 108.648L18.4528 98.6042L16.9702 98.8323L18.5154 108.876L19.9979 108.648ZM18.4603 98.7598L18.7927 92.7768L17.295 92.6936L16.9626 98.6766L18.4603 98.7598ZM21.5789 77.4661L26.471 61.9002L25.04 61.4505L20.1479 77.0163L21.5789 77.4661ZM36.8481 53.5684L62.2647 51.3583L62.1347 49.8639L36.7181 52.074L36.8481 53.5684ZM52.5795 76.4938L60.011 74.8424L59.6856 73.3781L52.2541 75.0295L52.5795 76.4938ZM61.8193 75.0743L63.6154 75.9952L64.2998 74.6604L62.5037 73.7395L61.8193 75.0743ZM66.6461 69.1402L64.1952 68.2212L63.6686 69.6257L66.1194 70.5447L66.6461 69.1402ZM57.7357 67.6596L51.0278 68.9174L51.3043 70.3917L58.0121 69.1339L57.7357 67.6596ZM28.9523 70.459L32.3454 70.8831L32.5315 69.3947L29.1383 68.9705L28.9523 70.459ZM38.7096 76.349L31.2124 74.9433L30.9359 76.4176L38.4332 77.8233L38.7096 76.349ZM21.9146 77.2461C21.2698 77.7014 20.6931 78.1813 20.2796 78.5451C20.0721 78.7277 19.904 78.8825 19.787 78.9924C19.7285 79.0473 19.6827 79.0912 19.651 79.1218C19.6352 79.137 19.6229 79.149 19.6143 79.1574C19.61 79.1616 19.6066 79.1649 19.6042 79.1673C19.603 79.1685 19.602 79.1694 19.6013 79.1701C19.6009 79.1705 19.6006 79.1708 19.6004 79.171C19.6002 79.1712 19.6001 79.1713 19.6 79.1714C19.6 79.1714 19.5999 79.1715 19.5999 79.1715C19.5999 79.1715 19.5998 79.1716 20.127 79.7051C20.6541 80.2386 20.6541 80.2386 20.654 80.2387C20.654 80.2387 20.654 80.2387 20.654 80.2387C20.6539 80.2387 20.6539 80.2388 20.6539 80.2388C20.6539 80.2388 20.654 80.2387 20.6541 80.2386C20.6543 80.2384 20.6548 80.2379 20.6555 80.2372C20.6569 80.2359 20.6592 80.2336 20.6624 80.2304C20.6689 80.2241 20.679 80.2142 20.6926 80.2011C20.7198 80.1749 20.7608 80.1357 20.8141 80.0855C20.9209 79.9852 21.0768 79.8416 21.2704 79.6713C21.6589 79.3295 22.1923 78.8862 22.7798 78.4714L21.9146 77.2461ZM20.8441 79.9246L22.4528 74.6683L21.0185 74.2294L19.4098 79.4856L20.8441 79.9246ZM37.8545 77.3067L38.8126 80.421L40.2463 79.98L39.2882 76.8656L37.8545 77.3067ZM38.1043 93.4866C37.1176 95.7475 36.0953 98.0542 35.4187 99.4851L36.7748 100.126C37.4622 98.6723 38.4929 96.3464 39.4791 94.0865L38.1043 93.4866ZM18.5383 108.977C18.8133 109.894 19.5502 111.944 20.3852 114.207L21.7924 113.688C20.9514 111.409 20.2336 109.408 19.975 108.546L18.5383 108.977ZM70.3524 118.309L78.9714 113.794L78.2753 112.466L69.6564 116.98L70.3524 118.309ZM83.0806 109.833L84.8045 106.816L83.5022 106.072L81.7783 109.089L83.0806 109.833ZM63.9369 113.484L64.0349 113.974L65.5058 113.68L65.4078 113.19L63.9369 113.484ZM37.6797 105.462L42.1707 107.146L42.6974 105.742L38.2064 104.058L37.6797 105.462ZM28.8099 112.007L42.6818 107.152L42.1863 105.736L28.3144 110.591L28.8099 112.007ZM42.434 107.194H56.264V105.694H42.434V107.194ZM34.9974 116.16L54.9629 113.68L54.7781 112.192L34.8125 114.671L34.9974 116.16ZM54.2943 112.456L51.9005 115.328L53.0528 116.289L55.4467 113.416L54.2943 112.456ZM36.7548 116.156L35.4254 114.875L34.3846 115.955L35.714 117.236L36.7548 116.156ZM18.3823 98.3828L15.9063 93.4305L14.5647 94.1012L17.0406 99.0536L18.3823 98.3828ZM11.5258 62.7632L11.6614 62.0173L10.1856 61.7489L10.05 62.4949L11.5258 62.7632ZM20.8149 40.8214C24.1524 36.435 27.9663 31.502 30.9465 27.6648C32.4365 25.7463 33.7178 24.1021 34.6266 22.9376C35.0809 22.3553 35.4422 21.893 35.6898 21.5763C35.8136 21.4179 35.909 21.2959 35.9735 21.2136C36.0057 21.1724 36.0302 21.1411 36.0466 21.1201C36.0548 21.1096 36.061 21.1017 36.0651 21.0964C36.0672 21.0938 36.0687 21.0918 36.0698 21.0905C36.0703 21.0898 36.0707 21.0893 36.0709 21.089C36.0711 21.0888 36.0712 21.0887 36.0712 21.0886C36.0713 21.0885 36.0713 21.0885 35.4808 20.6261C34.8903 20.1638 34.8902 20.1638 34.8902 20.1639C34.8901 20.164 34.89 20.1641 34.8899 20.1643C34.8896 20.1646 34.8892 20.1651 34.8887 20.1658C34.8876 20.1671 34.8861 20.1691 34.884 20.1718C34.8798 20.1771 34.8736 20.1851 34.8654 20.1956C34.8489 20.2166 34.8244 20.248 34.7921 20.2892C34.7275 20.3718 34.632 20.4939 34.5081 20.6524C34.2602 20.9695 33.8987 21.4321 33.444 22.0148C32.5347 23.18 31.2527 24.8252 29.7619 26.7447C26.7805 30.5833 22.9631 35.5209 19.6212 39.9131L20.8149 40.8214ZM34.7384 20.7324L35.511 26.1316L36.9958 25.9191L36.2232 20.5199L34.7384 20.7324ZM36.8348 26.4991L56.9219 1.84705L55.7591 0.899533L35.672 25.5516L36.8348 26.4991ZM55.6772 1.72336L70.3562 29.5362L71.6828 28.8361L57.0038 1.02322L55.6772 1.72336ZM71.6038 29.6564L84.7376 13.3368L83.5691 12.3963L70.4352 28.7159L71.6038 29.6564ZM83.4399 13.0977L93.4834 44.0964L94.9104 43.634L84.8668 12.6354L83.4399 13.0977ZM94.5561 44.5236L103.055 39.8867L102.336 38.5699L93.8377 43.2068L94.5561 44.5236ZM101.971 39.4218L105.784 53.7004L107.233 53.3134L103.42 39.0348L101.971 39.4218ZM99.5954 102.331C98.3172 104.344 97.1241 106.099 96.1087 107.401C95.6005 108.054 95.1468 108.579 94.7576 108.964C94.3513 109.365 94.0761 109.55 93.9277 109.607L94.4662 111.007C94.9177 110.833 95.3756 110.462 95.8117 110.031C96.2649 109.583 96.7629 109.002 97.2918 108.324C98.3506 106.965 99.5733 105.164 100.862 103.135L99.5954 102.331ZM93.4844 110.073C92.4223 113.306 90.5682 115.721 88.9704 117.331C88.1727 118.135 87.4429 118.734 86.9158 119.131C86.6525 119.329 86.4403 119.476 86.2962 119.572C86.2242 119.62 86.1692 119.655 86.1335 119.677C86.1156 119.689 86.1026 119.697 86.0946 119.702C86.0906 119.704 86.0879 119.706 86.0864 119.707C86.0857 119.707 86.0853 119.707 86.0853 119.707C86.0852 119.707 86.0853 119.707 86.0854 119.707C86.0855 119.707 86.0857 119.707 86.0857 119.707C86.0859 119.707 86.0861 119.707 86.4711 120.35C86.8561 120.994 86.8564 120.994 86.8566 120.994C86.8567 120.994 86.857 120.994 86.8573 120.993C86.8577 120.993 86.8583 120.993 86.8589 120.992C86.8602 120.992 86.8618 120.991 86.8638 120.989C86.8677 120.987 86.8729 120.984 86.8794 120.98C86.8924 120.972 86.9105 120.961 86.9335 120.946C86.9796 120.917 87.0452 120.875 87.1281 120.82C87.294 120.709 87.5295 120.546 87.8173 120.33C88.3925 119.897 89.1786 119.251 90.0352 118.387C91.7463 116.663 93.7551 114.056 94.9095 110.541L93.4844 110.073ZM94.9469 110.307C94.9469 110.302 94.9469 110.298 94.9469 110.293C94.9469 110.288 94.9469 110.283 94.9469 110.279C94.9469 110.274 94.9469 110.269 94.9469 110.265C94.9469 110.26 94.9469 110.255 94.9469 110.25C94.9469 110.246 94.9469 110.241 94.9469 110.236C94.9469 110.231 94.9469 110.227 94.9469 110.222C94.9469 110.217 94.9469 110.212 94.9469 110.207C94.9469 110.203 94.9469 110.198 94.9469 110.193C94.9469 110.188 94.9469 110.184 94.9469 110.179C94.9469 110.174 94.9469 110.169 94.9469 110.164C94.9469 110.16 94.9469 110.155 94.9469 110.15C94.9469 110.145 94.9469 110.14 94.9469 110.136C94.9469 110.131 94.9469 110.126 94.9469 110.121C94.9469 110.116 94.9469 110.112 94.9469 110.107C94.9469 110.102 94.9469 110.097 94.9469 110.092C94.9469 110.087 94.9469 110.083 94.9469 110.078C94.9469 110.073 94.9469 110.068 94.9469 110.063C94.9469 110.058 94.9469 110.054 94.9469 110.049C94.9469 110.044 94.9469 110.039 94.9469 110.034C94.9469 110.029 94.9469 110.024 94.9469 110.02C94.9469 110.015 94.9469 110.01 94.9469 110.005C94.9469 110 94.9469 109.995 94.9469 109.99C94.9469 109.986 94.9469 109.981 94.9469 109.976C94.9469 109.971 94.9469 109.966 94.9469 109.961C94.9469 109.956 94.9469 109.951 94.9469 109.946C94.9469 109.942 94.9469 109.937 94.9469 109.932C94.9469 109.927 94.9469 109.922 94.9469 109.917C94.9469 109.912 94.9469 109.907 94.9469 109.902C94.9469 109.897 94.9469 109.892 94.9469 109.888C94.9469 109.883 94.9469 109.878 94.9469 109.873C94.9469 109.868 94.9469 109.863 94.9469 109.858C94.9469 109.853 94.9469 109.848 94.9469 109.843C94.9469 109.838 94.9469 109.833 94.9469 109.828C94.9469 109.823 94.9469 109.818 94.9469 109.813C94.9469 109.809 94.9469 109.804 94.9469 109.799C94.9469 109.794 94.9469 109.789 94.9469 109.784C94.9469 109.779 94.9469 109.774 94.9469 109.769C94.9469 109.764 94.9469 109.759 94.9469 109.754C94.9469 109.749 94.9469 109.744 94.9469 109.739C94.9469 109.734 94.9469 109.729 94.9469 109.724C94.9469 109.719 94.9469 109.714 94.9469 109.709C94.9469 109.704 94.9469 109.699 94.9469 109.694C94.9469 109.689 94.9469 109.684 94.9469 109.679C94.9469 109.674 94.9469 109.669 94.9469 109.664C94.9469 109.659 94.9469 109.654 94.9469 109.649C94.9469 109.644 94.9469 109.639 94.9469 109.634C94.9469 109.629 94.9469 109.624 94.9469 109.619C94.9469 109.614 94.9469 109.609 94.9469 109.604C94.9469 109.599 94.9469 109.594 94.9469 109.589C94.9469 109.584 94.9469 109.579 94.9469 109.574C94.9469 109.568 94.9469 109.563 94.9469 109.558C94.9469 109.553 94.9469 109.548 94.9469 109.543C94.9469 109.538 94.9469 109.533 94.9469 109.528C94.9469 109.523 94.9469 109.518 94.9469 109.513C94.9469 109.508 94.9469 109.503 94.9469 109.498C94.9469 109.493 94.9469 109.488 94.9469 109.482C94.9469 109.477 94.9469 109.472 94.9469 109.467C94.9469 109.462 94.9469 109.457 94.9469 109.452C94.9469 109.447 94.9469 109.442 94.9469 109.437C94.9469 109.432 94.9469 109.426 94.9469 109.421C94.9469 109.416 94.9469 109.411 94.9469 109.406C94.9469 109.401 94.9469 109.396 94.9469 109.391C94.9469 109.386 94.9469 109.381 94.9469 109.375C94.9469 109.37 94.9469 109.365 94.9469 109.36C94.9469 109.355 94.9469 109.35 94.9469 109.345C94.9469 109.34 94.9469 109.334 94.9469 109.329C94.9469 109.324 94.9469 109.319 94.9469 109.314C94.9469 109.309 94.9469 109.304 94.9469 109.299C94.9469 109.293 94.9469 109.288 94.9469 109.283C94.9469 109.278 94.9469 109.273 94.9469 109.268C94.9469 109.263 94.9469 109.257 94.9469 109.252C94.9469 109.247 94.9469 109.242 94.9469 109.237C94.9469 109.232 94.9469 109.226 94.9469 109.221C94.9469 109.216 94.9469 109.211 94.9469 109.206C94.9469 109.201 94.9469 109.195 94.9469 109.19C94.9469 109.185 94.9469 109.18 94.9469 109.175C94.9469 109.17 94.9469 109.164 94.9469 109.159C94.9469 109.154 94.9469 109.149 94.9469 109.144C94.9469 109.139 94.9469 109.133 94.9469 109.128C94.9469 109.123 94.9469 109.118 94.9469 109.113C94.9469 109.107 94.9469 109.102 94.9469 109.097C94.9469 109.092 94.9469 109.087 94.9469 109.081C94.9469 109.076 94.9469 109.071 94.9469 109.066C94.9469 109.061 94.9469 109.055 94.9469 109.05C94.9469 109.045 94.9469 109.04 94.9469 109.035C94.9469 109.029 94.9469 109.024 94.9469 109.019C94.9469 109.014 94.9469 109.009 94.9469 109.003C94.9469 108.998 94.9469 108.993 94.9469 108.988C94.9469 108.982 94.9469 108.977 94.9469 108.972C94.9469 108.967 94.9469 108.961 94.9469 108.956C94.9469 108.951 94.9469 108.946 94.9469 108.941C94.9469 108.935 94.9469 108.93 94.9469 108.925C94.9469 108.92 94.9469 108.914 94.9469 108.909C94.9469 108.904 94.9469 108.899 94.9469 108.893C94.9469 108.888 94.9469 108.883 94.9469 108.878C94.9469 108.872 94.9469 108.867 94.9469 108.862C94.9469 108.857 94.9469 108.851 94.9469 108.846C94.9469 108.841 94.9469 108.836 94.9469 108.83C94.9469 108.825 94.9469 108.82 94.9469 108.815C94.9469 108.809 94.9469 108.804 94.9469 108.799C94.9469 108.793 94.9469 108.788 94.9469 108.783C94.9469 108.778 94.9469 108.772 94.9469 108.767C94.9469 108.762 94.9469 108.757 94.9469 108.751C94.9469 108.746 94.9469 108.741 94.9469 108.735C94.9469 108.73 94.9469 108.725 94.9469 108.72C94.9469 108.714 94.9469 108.709 94.9469 108.704C94.9469 108.698 94.9469 108.693 94.9469 108.688C94.9469 108.683 94.9469 108.677 94.9469 108.672C94.9469 108.667 94.9469 108.661 94.9469 108.656C94.9469 108.651 94.9469 108.645 94.9469 108.64C94.9469 108.635 94.9469 108.63 94.9469 108.624C94.9469 108.619 94.9469 108.614 94.9469 108.608C94.9469 108.603 94.9469 108.598 94.9469 108.592C94.9469 108.587 94.9469 108.582 94.9469 108.576C94.9469 108.571 94.9469 108.566 94.9469 108.56C94.9469 108.555 94.9469 108.55 94.9469 108.545C94.9469 108.539 94.9469 108.534 94.9469 108.529C94.9469 108.523 94.9469 108.518 94.9469 108.513C94.9469 108.507 94.9469 108.502 94.9469 108.497C94.9469 108.491 94.9469 108.486 94.9469 108.481C94.9469 108.475 94.9469 108.47 94.9469 108.465C94.9469 108.459 94.9469 108.454 94.9469 108.449C94.9469 108.443 94.9469 108.438 94.9469 108.433C94.9469 108.427 94.9469 108.422 94.9469 108.417C94.9469 108.411 94.9469 108.406 94.9469 108.401C94.9469 108.395 94.9469 108.39 94.9469 108.385C94.9469 108.379 94.9469 108.374 94.9469 108.368C94.9469 108.363 94.9469 108.358 94.9469 108.352C94.9469 108.347 94.9469 108.342 94.9469 108.336C94.9469 108.331 94.9469 108.326 94.9469 108.32C94.9469 108.315 94.9469 108.31 94.9469 108.304C94.9469 108.299 94.9469 108.294 94.9469 108.288C94.9469 108.283 94.9469 108.277 94.9469 108.272C94.9469 108.267 94.9469 108.261 94.9469 108.256C94.9469 108.251 94.9469 108.245 94.9469 108.24C94.9469 108.235 94.9469 108.229 94.9469 108.224C94.9469 108.218 94.9469 108.213 94.9469 108.208C94.9469 108.202 94.9469 108.197 94.9469 108.192C94.9469 108.186 94.9469 108.181 94.9469 108.175C94.9469 108.17 94.9469 108.165 94.9469 108.159C94.9469 108.154 94.9469 108.149 94.9469 108.143C94.9469 108.138 94.9469 108.132 94.9469 108.127C94.9469 108.122 94.9469 108.116 94.9469 108.111C94.9469 108.106 94.9469 108.1 94.9469 108.095C94.9469 108.089 94.9469 108.084 94.9469 108.079C94.9469 108.073 94.9469 108.068 94.9469 108.062C94.9469 108.057 94.9469 108.052 94.9469 108.046C94.9469 108.041 94.9469 108.036 94.9469 108.03C94.9469 108.025 94.9469 108.019 94.9469 108.014C94.9469 108.009 94.9469 108.003 94.9469 107.998C94.9469 107.992 94.9469 107.987 94.9469 107.982C94.9469 107.976 94.9469 107.971 94.9469 107.965C94.9469 107.96 94.9469 107.955 94.9469 107.949C94.9469 107.944 94.9469 107.938 94.9469 107.933C94.9469 107.928 94.9469 107.922 94.9469 107.917C94.9469 107.911 94.9469 107.906 94.9469 107.901C94.9469 107.895 94.9469 107.89 94.9469 107.884C94.9469 107.879 94.9469 107.874 94.9469 107.868C94.9469 107.863 94.9469 107.857 94.9469 107.852C94.9469 107.847 94.9469 107.841 94.9469 107.836C94.9469 107.83 94.9469 107.825 94.9469 107.82C94.9469 107.814 94.9469 107.809 94.9469 107.803C94.9469 107.798 94.9469 107.793 94.9469 107.787C94.9469 107.782 94.9469 107.776 94.9469 107.771C94.9469 107.766 94.9469 107.76 94.9469 107.755C94.9469 107.749 94.9469 107.744 94.9469 107.739C94.9469 107.733 94.9469 107.728 94.9469 107.722C94.9469 107.717 94.9469 107.711 94.9469 107.706C94.9469 107.701 94.9469 107.695 94.9469 107.69C94.9469 107.684 94.9469 107.679 94.9469 107.674C94.9469 107.668 94.9469 107.663 94.9469 107.657C94.9469 107.652 94.9469 107.646 94.9469 107.641C94.9469 107.636 94.9469 107.63 94.9469 107.625C94.9469 107.619 94.9469 107.614 94.9469 107.609C94.9469 107.603 94.9469 107.598 94.9469 107.592C94.9469 107.587 94.9469 107.582 94.9469 107.576C94.9469 107.571 94.9469 107.565 94.9469 107.56C94.9469 107.554 94.9469 107.549 94.9469 107.544C94.9469 107.538 94.9469 107.533 94.9469 107.527C94.9469 107.522 94.9469 107.516 94.9469 107.511C94.9469 107.506 94.9469 107.5 94.9469 107.495C94.9469 107.489 94.9469 107.484 94.9469 107.479C94.9469 107.473 94.9469 107.468 94.9469 107.462C94.9469 107.457 94.9469 107.451 94.9469 107.446C94.9469 107.441 94.9469 107.435 94.9469 107.43C94.9469 107.424 94.9469 107.419 94.9469 107.414C94.9469 107.408 94.9469 107.403 94.9469 107.397C94.9469 107.392 94.9469 107.386 94.9469 107.381C94.9469 107.376 94.9469 107.37 94.9469 107.365C94.9469 107.359 94.9469 107.354 94.9469 107.349C94.9469 107.343 94.9469 107.338 94.9469 107.332C94.9469 107.327 94.9469 107.321 94.9469 107.316C94.9469 107.311 94.9469 107.305 94.9469 107.3C94.9469 107.294 94.9469 107.289 94.9469 107.284C94.9469 107.278 94.9469 107.273 94.9469 107.267C94.9469 107.262 94.9469 107.256 94.9469 107.251C94.9469 107.246 94.9469 107.24 94.9469 107.235C94.9469 107.229 94.9469 107.224 94.9469 107.219C94.9469 107.213 94.9469 107.208 94.9469 107.202C94.9469 107.197 94.9469 107.191 94.9469 107.186C94.9469 107.181 94.9469 107.175 94.9469 107.17C94.9469 107.164 94.9469 107.159 94.9469 107.154C94.9469 107.148 94.9469 107.143 94.9469 107.137C94.9469 107.132 94.9469 107.126 94.9469 107.121C94.9469 107.116 94.9469 107.11 94.9469 107.105C94.9469 107.099 94.9469 107.094 94.9469 107.089C94.9469 107.083 94.9469 107.078 94.9469 107.072C94.9469 107.067 94.9469 107.062 94.9469 107.056C94.9469 107.051 94.9469 107.045 94.9469 107.04C94.9469 107.035 94.9469 107.029 94.9469 107.024C94.9469 107.018 94.9469 107.013 94.9469 107.007C94.9469 107.002 94.9469 106.997 94.9469 106.991C94.9469 106.986 94.9469 106.98 94.9469 106.975C94.9469 106.97 94.9469 106.964 94.9469 106.959C94.9469 106.953 94.9469 106.948 94.9469 106.943C94.9469 106.937 94.9469 106.932 94.9469 106.926C94.9469 106.921 94.9469 106.916 94.9469 106.91C94.9469 106.905 94.9469 106.899 94.9469 106.894C94.9469 106.889 94.9469 106.883 94.9469 106.878C94.9469 106.872 94.9469 106.867 94.9469 106.862C94.9469 106.856 94.9469 106.851 94.9469 106.845C94.9469 106.84 94.9469 106.835 94.9469 106.829C94.9469 106.824 94.9469 106.819 94.9469 106.813C94.9469 106.808 94.9469 106.802 94.9469 106.797C94.9469 106.792 94.9469 106.786 94.9469 106.781C94.9469 106.775 94.9469 106.77 94.9469 106.765C94.9469 106.759 94.9469 106.754 94.9469 106.748C94.9469 106.743 94.9469 106.738 94.9469 106.732C94.9469 106.727 94.9469 106.722 94.9469 106.716C94.9469 106.711 94.9469 106.705 94.9469 106.7C94.9469 106.695 94.9469 106.689 94.9469 106.684C94.9469 106.679 94.9469 106.673 94.9469 106.668C94.9469 106.662 94.9469 106.657 94.9469 106.652C94.9469 106.646 94.9469 106.641 94.9469 106.636C94.9469 106.63 94.9469 106.625 94.9469 106.619C94.9469 106.614 94.9469 106.609 94.9469 106.603C94.9469 106.598 94.9469 106.593 94.9469 106.587C94.9469 106.582 94.9469 106.576 94.9469 106.571C94.9469 106.566 94.9469 106.56 94.9469 106.555C94.9469 106.55 94.9469 106.544 94.9469 106.539C94.9469 106.534 94.9469 106.528 94.9469 106.523C94.9469 106.518 94.9469 106.512 94.9469 106.507C94.9469 106.501 94.9469 106.496 94.9469 106.491C94.9469 106.485 94.9469 106.48 94.9469 106.475C94.9469 106.469 94.9469 106.464 94.9469 106.459C94.9469 106.453 94.9469 106.448 94.9469 106.443C94.9469 106.437 94.9469 106.432 94.9469 106.427C94.9469 106.421 94.9469 106.416 94.9469 106.411C94.9469 106.405 94.9469 106.4 94.9469 106.395C94.9469 106.389 94.9469 106.384 94.9469 106.379C94.9469 106.373 94.9469 106.368 94.9469 106.363C94.9469 106.357 94.9469 106.352 94.9469 106.347C94.9469 106.341 94.9469 106.336 94.9469 106.331C94.9469 106.325 94.9469 106.32 94.9469 106.315C94.9469 106.309 94.9469 106.304 94.9469 106.299C94.9469 106.293 94.9469 106.288 94.9469 106.283C94.9469 106.277 94.9469 106.272 94.9469 106.267C94.9469 106.261 94.9469 106.256 94.9469 106.251C94.9469 106.245 94.9469 106.24 94.9469 106.235C94.9469 106.23 94.9469 106.224 94.9469 106.219C94.9469 106.214 94.9469 106.208 94.9469 106.203C94.9469 106.198 94.9469 106.192 94.9469 106.187C94.9469 106.182 94.9469 106.176 94.9469 106.171C94.9469 106.166 94.9469 106.161 94.9469 106.155C94.9469 106.15 94.9469 106.145 94.9469 106.139C94.9469 106.134 94.9469 106.129 94.9469 106.124C94.9469 106.118 94.9469 106.113 94.9469 106.108C94.9469 106.102 94.9469 106.097 94.9469 106.092C94.9469 106.087 94.9469 106.081 94.9469 106.076C94.9469 106.071 94.9469 106.065 94.9469 106.06C94.9469 106.055 94.9469 106.05 94.9469 106.044C94.9469 106.039 94.9469 106.034 94.9469 106.029C94.9469 106.023 94.9469 106.018 94.9469 106.013C94.9469 106.007 94.9469 106.002 94.9469 105.997C94.9469 105.992 94.9469 105.986 94.9469 105.981C94.9469 105.976 94.9469 105.971 94.9469 105.965C94.9469 105.96 94.9469 105.955 94.9469 105.95C94.9469 105.944 94.9469 105.939 94.9469 105.934C94.9469 105.929 94.9469 105.923 94.9469 105.918C94.9469 105.913 94.9469 105.908 94.9469 105.902C94.9469 105.897 94.9469 105.892 94.9469 105.887C94.9469 105.881 94.9469 105.876 94.9469 105.871C94.9469 105.866 94.9469 105.861 94.9469 105.855C94.9469 105.85 94.9469 105.845 94.9469 105.84C94.9469 105.834 94.9469 105.829 94.9469 105.824C94.9469 105.819 94.9469 105.814 94.9469 105.808C94.9469 105.803 94.9469 105.798 94.9469 105.793C94.9469 105.787 94.9469 105.782 94.9469 105.777C94.9469 105.772 94.9469 105.767 94.9469 105.761C94.9469 105.756 94.9469 105.751 94.9469 105.746C94.9469 105.741 94.9469 105.735 94.9469 105.73C94.9469 105.725 94.9469 105.72 94.9469 105.715C94.9469 105.709 94.9469 105.704 94.9469 105.699C94.9469 105.694 94.9469 105.689 94.9469 105.684C94.9469 105.678 94.9469 105.673 94.9469 105.668C94.9469 105.663 94.9469 105.658 94.9469 105.652C94.9469 105.647 94.9469 105.642 94.9469 105.637C94.9469 105.632 94.9469 105.627 94.9469 105.621C94.9469 105.616 94.9469 105.611 94.9469 105.606C94.9469 105.601 94.9469 105.596 94.9469 105.591C94.9469 105.585 94.9469 105.58 94.9469 105.575C94.9469 105.57 94.9469 105.565 94.9469 105.56C94.9469 105.554 94.9469 105.549 94.9469 105.544C94.9469 105.539 94.9469 105.534 94.9469 105.529C94.9469 105.524 94.9469 105.518 94.9469 105.513C94.9469 105.508 94.9469 105.503 94.9469 105.498C94.9469 105.493 94.9469 105.488 94.9469 105.483C94.9469 105.477 94.9469 105.472 94.9469 105.467C94.9469 105.462 94.9469 105.457 94.9469 105.452C94.9469 105.447 94.9469 105.442 94.9469 105.437C94.9469 105.431 94.9469 105.426 94.9469 105.421C94.9469 105.416 94.9469 105.411 94.9469 105.406C94.9469 105.401 94.9469 105.396 94.9469 105.391C94.9469 105.386 94.9469 105.381 94.9469 105.375C94.9469 105.37 94.9469 105.365 94.9469 105.36C94.9469 105.355 94.9469 105.35 94.9469 105.345C94.9469 105.34 94.9469 105.335 94.9469 105.33C94.9469 105.325 94.9469 105.32 94.9469 105.315C94.9469 105.309 94.9469 105.304 94.9469 105.299C94.9469 105.294 94.9469 105.289 94.9469 105.284C94.9469 105.279 94.9469 105.274 94.9469 105.269C94.9469 105.264 94.9469 105.259 94.9469 105.254C94.9469 105.249 94.9469 105.244 94.9469 105.239C94.9469 105.234 94.9469 105.229 94.9469 105.224C94.9469 105.219 94.9469 105.214 94.9469 105.209C94.9469 105.204 94.9469 105.198 94.9469 105.193C94.9469 105.188 94.9469 105.183 94.9469 105.178C94.9469 105.173 94.9469 105.168 94.9469 105.163C94.9469 105.158 94.9469 105.153 94.9469 105.148C94.9469 105.143 94.9469 105.138 94.9469 105.133C94.9469 105.128 94.9469 105.123 94.9469 105.118C94.9469 105.113 94.9469 105.108 94.9469 105.103C94.9469 105.098 94.9469 105.093 94.9469 105.088C94.9469 105.083 94.9469 105.078 94.9469 105.074C94.9469 105.069 94.9469 105.064 94.9469 105.059C94.9469 105.054 94.9469 105.049 94.9469 105.044C94.9469 105.039 94.9469 105.034 94.9469 105.029C94.9469 105.024 94.9469 105.019 94.9469 105.014C94.9469 105.009 94.9469 105.004 94.9469 104.999C94.9469 104.994 94.9469 104.989 94.9469 104.984C94.9469 104.979 94.9469 104.974 94.9469 104.97C94.9469 104.965 94.9469 104.96 94.9469 104.955C94.9469 104.95 94.9469 104.945 94.9469 104.94C94.9469 104.935 94.9469 104.93 94.9469 104.925C94.9469 104.92 94.9469 104.915 94.9469 104.91C94.9469 104.906 94.9469 104.901 94.9469 104.896C94.9469 104.891 94.9469 104.886 94.9469 104.881C94.9469 104.876 94.9469 104.871 94.9469 104.866C94.9469 104.862 94.9469 104.857 94.9469 104.852C94.9469 104.847 94.9469 104.842 94.9469 104.837C94.9469 104.832 94.9469 104.827 94.9469 104.823C94.9469 104.818 94.9469 104.813 94.9469 104.808C94.9469 104.803 94.9469 104.798 94.9469 104.793C94.9469 104.789 94.9469 104.784 94.9469 104.779C94.9469 104.774 94.9469 104.769 94.9469 104.764C94.9469 104.759 94.9469 104.755 94.9469 104.75C94.9469 104.745 94.9469 104.74 94.9469 104.735C94.9469 104.73 94.9469 104.726 94.9469 104.721C94.9469 104.716 94.9469 104.711 94.9469 104.706C94.9469 104.702 94.9469 104.697 94.9469 104.692C94.9469 104.687 94.9469 104.682 94.9469 104.678C94.9469 104.673 94.9469 104.668 94.9469 104.663C94.9469 104.658 94.9469 104.654 94.9469 104.649C94.9469 104.644 94.9469 104.639 94.9469 104.634C94.9469 104.63 94.9469 104.625 94.9469 104.62C94.9469 104.615 94.9469 104.611 94.9469 104.606C94.9469 104.601 94.9469 104.596 94.9469 104.592C94.9469 104.587 94.9469 104.582 94.9469 104.577C94.9469 104.573 94.9469 104.568 94.9469 104.563C94.9469 104.558 94.9469 104.554 94.9469 104.549C94.9469 104.544 94.9469 104.539 94.9469 104.535C94.9469 104.53 94.9469 104.525 94.9469 104.521C94.9469 104.516 94.9469 104.511 94.9469 104.506C94.9469 104.502 94.9469 104.497 94.9469 104.492C94.9469 104.488 94.9469 104.483 94.9469 104.478C94.9469 104.473 94.9469 104.469 94.9469 104.464C94.9469 104.459 94.9469 104.455 94.9469 104.45C94.9469 104.445 94.9469 104.441 94.9469 104.436C94.9469 104.431 94.9469 104.427 94.9469 104.422C94.9469 104.417 94.9469 104.413 94.9469 104.408C94.9469 104.403 94.9469 104.399 94.9469 104.394C94.9469 104.389 94.9469 104.385 94.9469 104.38C94.9469 104.376 94.9469 104.371 94.9469 104.366C94.9469 104.362 94.9469 104.357 94.9469 104.352C94.9469 104.348 94.9469 104.343 94.9469 104.339C94.9469 104.334 94.9469 104.329 94.9469 104.325C94.9469 104.32 94.9469 104.315 94.9469 104.311C94.9469 104.306 94.9469 104.302 94.9469 104.297C94.9469 104.293 94.9469 104.288 94.9469 104.283C94.9469 104.279 94.9469 104.274 94.9469 104.27C94.9469 104.265 94.9469 104.26 94.9469 104.256C94.9469 104.251 94.9469 104.247 94.9469 104.242C94.9469 104.238 94.9469 104.233 94.9469 104.229C94.9469 104.224 94.9469 104.219 94.9469 104.215C94.9469 104.21 94.9469 104.206 94.9469 104.201C94.9469 104.197 94.9469 104.192 94.9469 104.188C94.9469 104.183 94.9469 104.179 94.9469 104.174C94.9469 104.17 94.9469 104.165 94.9469 104.161C94.9469 104.156 94.9469 104.152 94.9469 104.147C94.9469 104.143 94.9469 104.138 94.9469 104.134C94.9469 104.129 94.9469 104.125 94.9469 104.12C94.9469 104.116 94.9469 104.111 94.9469 104.107C94.9469 104.102 94.9469 104.098 94.9469 104.093C94.9469 104.089 94.9469 104.084 94.9469 104.08C94.9469 104.075 94.9469 104.071 94.9469 104.067C94.9469 104.062 94.9469 104.058 94.9469 104.053C94.9469 104.049 94.9469 104.044 94.9469 104.04C94.9469 104.036 94.9469 104.031 94.9469 104.027C94.9469 104.022 94.9469 104.018 94.9469 104.013C94.9469 104.009 94.9469 104.005 94.9469 104C94.9469 103.996 94.9469 103.991 94.9469 103.987C94.9469 103.983 94.9469 103.978 94.9469 103.974C94.9469 103.969 94.9469 103.965 94.9469 103.961C94.9469 103.956 94.9469 103.952 94.9469 103.948C94.9469 103.943 94.9469 103.939 94.9469 103.935C94.9469 103.93 94.9469 103.926 94.9469 103.921C94.9469 103.917 94.9469 103.913 94.9469 103.908C94.9469 103.904 94.9469 103.9 94.9469 103.895C94.9469 103.891 94.9469 103.887 94.9469 103.882C94.9469 103.878 94.9469 103.874 94.9469 103.87C94.9469 103.865 94.9469 103.861 94.9469 103.857C94.9469 103.852 94.9469 103.848 94.9469 103.844C94.9469 103.839 94.9469 103.835 94.9469 103.831C94.9469 103.827 94.9469 103.822 94.9469 103.818C94.9469 103.814 94.9469 103.81 94.9469 103.805C94.9469 103.801 94.9469 103.797 94.9469 103.792C94.9469 103.788 94.9469 103.784 94.9469 103.78C94.9469 103.776 94.9469 103.771 94.9469 103.767C94.9469 103.763 94.9469 103.759 94.9469 103.754C94.9469 103.75 94.9469 103.746 94.9469 103.742C94.9469 103.738 94.9469 103.733 94.9469 103.729C94.9469 103.725 94.9469 103.721 94.9469 103.717C94.9469 103.712 94.9469 103.708 94.9469 103.704C94.9469 103.7 94.9469 103.696 94.9469 103.691C94.9469 103.687 94.9469 103.683 94.9469 103.679C94.9469 103.675 94.9469 103.671 94.9469 103.666C94.9469 103.662 94.9469 103.658 94.9469 103.654C94.9469 103.65 94.9469 103.646 94.9469 103.642C94.9469 103.637 94.9469 103.633 94.9469 103.629C94.9469 103.625 94.9469 103.621 94.9469 103.617C94.9469 103.613 94.9469 103.609 94.9469 103.605C94.9469 103.6 94.9469 103.596 94.9469 103.592C94.9469 103.588 94.9469 103.584 94.9469 103.58C94.9469 103.576 94.9469 103.572 94.9469 103.568C94.9469 103.564 94.9469 103.56 94.9469 103.556C94.9469 103.552 94.9469 103.547 94.9469 103.543C94.9469 103.539 94.9469 103.535 94.9469 103.531C94.9469 103.527 94.9469 103.523 94.9469 103.519C94.9469 103.515 94.9469 103.511 94.9469 103.507C94.9469 103.503 94.9469 103.499 94.9469 103.495C94.9469 103.491 94.9469 103.487 94.9469 103.483C94.9469 103.479 94.9469 103.475 94.9469 103.471C94.9469 103.467 94.9469 103.463 94.9469 103.459C94.9469 103.455 94.9469 103.451 94.9469 103.447C94.9469 103.443 94.9469 103.439 94.9469 103.435C94.9469 103.431 94.9469 103.427 94.9469 103.424C94.9469 103.42 94.9469 103.416 94.9469 103.412C94.9469 103.408 94.9469 103.404 94.9469 103.4C94.9469 103.396 94.9469 103.392 94.9469 103.388C94.9469 103.384 94.9469 103.38 94.9469 103.377C94.9469 103.373 94.9469 103.369 94.9469 103.365C94.9469 103.361 94.9469 103.357 94.9469 103.353C94.9469 103.349 94.9469 103.345 94.9469 103.342C94.9469 103.338 94.9469 103.334 94.9469 103.33C94.9469 103.326 94.9469 103.322 94.9469 103.318C94.9469 103.315 94.9469 103.311 94.9469 103.307C94.9469 103.303 94.9469 103.299 94.9469 103.295C94.9469 103.292 94.9469 103.288 94.9469 103.284C94.9469 103.28 94.9469 103.276 94.9469 103.273C94.9469 103.269 94.9469 103.265 94.9469 103.261C94.9469 103.257 94.9469 103.254 94.9469 103.25C94.9469 103.246 94.9469 103.242 94.9469 103.239C94.9469 103.235 94.9469 103.231 94.9469 103.227C94.9469 103.224 94.9469 103.22 94.9469 103.216C94.9469 103.212 94.9469 103.209 94.9469 103.205C94.9469 103.201 94.9469 103.197 94.9469 103.194C94.9469 103.19 94.9469 103.186 94.9469 103.183C94.9469 103.179 94.9469 103.175 94.9469 103.172C94.9469 103.168 94.9469 103.164 94.9469 103.161C94.9469 103.157 94.9469 103.153 94.9469 103.149C94.9469 103.146 94.9469 103.142 94.9469 103.139C94.9469 103.135 94.9469 103.131 94.9469 103.128C94.9469 103.124 94.9469 103.12 94.9469 103.117C94.9469 103.113 94.9469 103.109 94.9469 103.106C94.9469 103.102 94.9469 103.099 94.9469 103.095C94.9469 103.091 94.9469 103.088 94.9469 103.084C94.9469 103.081 94.9469 103.077 94.9469 103.073C94.9469 103.07 94.9469 103.066 94.9469 103.063C94.9469 103.059 94.9469 103.055 94.9469 103.052C94.9469 103.048 94.9469 103.045 94.9469 103.041C94.9469 103.038 94.9469 103.034 94.9469 103.031C94.9469 103.027 94.9469 103.024 94.9469 103.02C94.9469 103.017 94.9469 103.013 94.9469 103.01C94.9469 103.006 94.9469 103.003 94.9469 102.999C94.9469 102.996 94.9469 102.992 94.9469 102.989C94.9469 102.985 94.9469 102.982 94.9469 102.978C94.9469 102.975 94.9469 102.971 94.9469 102.968C94.9469 102.964 94.9469 102.961 94.9469 102.957C94.9469 102.954 94.9469 102.95 94.9469 102.947C94.9469 102.944 94.9469 102.94 94.9469 102.937C94.9469 102.933 94.9469 102.93 94.9469 102.927C94.9469 102.923 94.9469 102.92 94.9469 102.916C94.9469 102.913 94.9469 102.91 94.9469 102.906C94.9469 102.903 94.9469 102.899 94.9469 102.896C94.9469 102.893 94.9469 102.889 94.9469 102.886C94.9469 102.883 94.9469 102.879 94.9469 102.876C94.9469 102.873 94.9469 102.869 94.9469 102.866C94.9469 102.863 94.9469 102.859 94.9469 102.856C94.9469 102.853 94.9469 102.849 94.9469 102.846C94.9469 102.843 94.9469 102.839 94.9469 102.836C94.9469 102.833 94.9469 102.829 94.9469 102.826C94.9469 102.823 94.9469 102.82 94.9469 102.816H93.4469C93.4469 102.82 93.4469 102.823 93.4469 102.826C93.4469 102.829 93.4469 102.833 93.4469 102.836C93.4469 102.839 93.4469 102.843 93.4469 102.846C93.4469 102.849 93.4469 102.853 93.4469 102.856C93.4469 102.859 93.4469 102.863 93.4469 102.866C93.4469 102.869 93.4469 102.873 93.4469 102.876C93.4469 102.879 93.4469 102.883 93.4469 102.886C93.4469 102.889 93.4469 102.893 93.4469 102.896C93.4469 102.899 93.4469 102.903 93.4469 102.906C93.4469 102.91 93.4469 102.913 93.4469 102.916C93.4469 102.92 93.4469 102.923 93.4469 102.927C93.4469 102.93 93.4469 102.933 93.4469 102.937C93.4469 102.94 93.4469 102.944 93.4469 102.947C93.4469 102.95 93.4469 102.954 93.4469 102.957C93.4469 102.961 93.4469 102.964 93.4469 102.968C93.4469 102.971 93.4469 102.975 93.4469 102.978C93.4469 102.982 93.4469 102.985 93.4469 102.989C93.4469 102.992 93.4469 102.996 93.4469 102.999C93.4469 103.003 93.4469 103.006 93.4469 103.01C93.4469 103.013 93.4469 103.017 93.4469 103.02C93.4469 103.024 93.4469 103.027 93.4469 103.031C93.4469 103.034 93.4469 103.038 93.4469 103.041C93.4469 103.045 93.4469 103.048 93.4469 103.052C93.4469 103.055 93.4469 103.059 93.4469 103.063C93.4469 103.066 93.4469 103.07 93.4469 103.073C93.4469 103.077 93.4469 103.081 93.4469 103.084C93.4469 103.088 93.4469 103.091 93.4469 103.095C93.4469 103.099 93.4469 103.102 93.4469 103.106C93.4469 103.109 93.4469 103.113 93.4469 103.117C93.4469 103.12 93.4469 103.124 93.4469 103.128C93.4469 103.131 93.4469 103.135 93.4469 103.139C93.4469 103.142 93.4469 103.146 93.4469 103.149C93.4469 103.153 93.4469 103.157 93.4469 103.161C93.4469 103.164 93.4469 103.168 93.4469 103.172C93.4469 103.175 93.4469 103.179 93.4469 103.183C93.4469 103.186 93.4469 103.19 93.4469 103.194C93.4469 103.197 93.4469 103.201 93.4469 103.205C93.4469 103.209 93.4469 103.212 93.4469 103.216C93.4469 103.22 93.4469 103.224 93.4469 103.227C93.4469 103.231 93.4469 103.235 93.4469 103.239C93.4469 103.242 93.4469 103.246 93.4469 103.25C93.4469 103.254 93.4469 103.257 93.4469 103.261C93.4469 103.265 93.4469 103.269 93.4469 103.273C93.4469 103.276 93.4469 103.28 93.4469 103.284C93.4469 103.288 93.4469 103.292 93.4469 103.295C93.4469 103.299 93.4469 103.303 93.4469 103.307C93.4469 103.311 93.4469 103.315 93.4469 103.318C93.4469 103.322 93.4469 103.326 93.4469 103.33C93.4469 103.334 93.4469 103.338 93.4469 103.342C93.4469 103.345 93.4469 103.349 93.4469 103.353C93.4469 103.357 93.4469 103.361 93.4469 103.365C93.4469 103.369 93.4469 103.373 93.4469 103.377C93.4469 103.38 93.4469 103.384 93.4469 103.388C93.4469 103.392 93.4469 103.396 93.4469 103.4C93.4469 103.404 93.4469 103.408 93.4469 103.412C93.4469 103.416 93.4469 103.42 93.4469 103.424C93.4469 103.427 93.4469 103.431 93.4469 103.435C93.4469 103.439 93.4469 103.443 93.4469 103.447C93.4469 103.451 93.4469 103.455 93.4469 103.459C93.4469 103.463 93.4469 103.467 93.4469 103.471C93.4469 103.475 93.4469 103.479 93.4469 103.483C93.4469 103.487 93.4469 103.491 93.4469 103.495C93.4469 103.499 93.4469 103.503 93.4469 103.507C93.4469 103.511 93.4469 103.515 93.4469 103.519C93.4469 103.523 93.4469 103.527 93.4469 103.531C93.4469 103.535 93.4469 103.539 93.4469 103.543C93.4469 103.547 93.4469 103.552 93.4469 103.556C93.4469 103.56 93.4469 103.564 93.4469 103.568C93.4469 103.572 93.4469 103.576 93.4469 103.58C93.4469 103.584 93.4469 103.588 93.4469 103.592C93.4469 103.596 93.4469 103.6 93.4469 103.605C93.4469 103.609 93.4469 103.613 93.4469 103.617C93.4469 103.621 93.4469 103.625 93.4469 103.629C93.4469 103.633 93.4469 103.637 93.4469 103.642C93.4469 103.646 93.4469 103.65 93.4469 103.654C93.4469 103.658 93.4469 103.662 93.4469 103.666C93.4469 103.671 93.4469 103.675 93.4469 103.679C93.4469 103.683 93.4469 103.687 93.4469 103.691C93.4469 103.696 93.4469 103.7 93.4469 103.704C93.4469 103.708 93.4469 103.712 93.4469 103.717C93.4469 103.721 93.4469 103.725 93.4469 103.729C93.4469 103.733 93.4469 103.738 93.4469 103.742C93.4469 103.746 93.4469 103.75 93.4469 103.754C93.4469 103.759 93.4469 103.763 93.4469 103.767C93.4469 103.771 93.4469 103.776 93.4469 103.78C93.4469 103.784 93.4469 103.788 93.4469 103.792C93.4469 103.797 93.4469 103.801 93.4469 103.805C93.4469 103.81 93.4469 103.814 93.4469 103.818C93.4469 103.822 93.4469 103.827 93.4469 103.831C93.4469 103.835 93.4469 103.839 93.4469 103.844C93.4469 103.848 93.4469 103.852 93.4469 103.857C93.4469 103.861 93.4469 103.865 93.4469 103.87C93.4469 103.874 93.4469 103.878 93.4469 103.882C93.4469 103.887 93.4469 103.891 93.4469 103.895C93.4469 103.9 93.4469 103.904 93.4469 103.908C93.4469 103.913 93.4469 103.917 93.4469 103.921C93.4469 103.926 93.4469 103.93 93.4469 103.935C93.4469 103.939 93.4469 103.943 93.4469 103.948C93.4469 103.952 93.4469 103.956 93.4469 103.961C93.4469 103.965 93.4469 103.969 93.4469 103.974C93.4469 103.978 93.4469 103.983 93.4469 103.987C93.4469 103.991 93.4469 103.996 93.4469 104C93.4469 104.005 93.4469 104.009 93.4469 104.013C93.4469 104.018 93.4469 104.022 93.4469 104.027C93.4469 104.031 93.4469 104.036 93.4469 104.04C93.4469 104.044 93.4469 104.049 93.4469 104.053C93.4469 104.058 93.4469 104.062 93.4469 104.067C93.4469 104.071 93.4469 104.075 93.4469 104.08C93.4469 104.084 93.4469 104.089 93.4469 104.093C93.4469 104.098 93.4469 104.102 93.4469 104.107C93.4469 104.111 93.4469 104.116 93.4469 104.12C93.4469 104.125 93.4469 104.129 93.4469 104.134C93.4469 104.138 93.4469 104.143 93.4469 104.147C93.4469 104.152 93.4469 104.156 93.4469 104.161C93.4469 104.165 93.4469 104.17 93.4469 104.174C93.4469 104.179 93.4469 104.183 93.4469 104.188C93.4469 104.192 93.4469 104.197 93.4469 104.201C93.4469 104.206 93.4469 104.21 93.4469 104.215C93.4469 104.219 93.4469 104.224 93.4469 104.229C93.4469 104.233 93.4469 104.238 93.4469 104.242C93.4469 104.247 93.4469 104.251 93.4469 104.256C93.4469 104.26 93.4469 104.265 93.4469 104.27C93.4469 104.274 93.4469 104.279 93.4469 104.283C93.4469 104.288 93.4469 104.293 93.4469 104.297C93.4469 104.302 93.4469 104.306 93.4469 104.311C93.4469 104.315 93.4469 104.32 93.4469 104.325C93.4469 104.329 93.4469 104.334 93.4469 104.339C93.4469 104.343 93.4469 104.348 93.4469 104.352C93.4469 104.357 93.4469 104.362 93.4469 104.366C93.4469 104.371 93.4469 104.376 93.4469 104.38C93.4469 104.385 93.4469 104.389 93.4469 104.394C93.4469 104.399 93.4469 104.403 93.4469 104.408C93.4469 104.413 93.4469 104.417 93.4469 104.422C93.4469 104.427 93.4469 104.431 93.4469 104.436C93.4469 104.441 93.4469 104.445 93.4469 104.45C93.4469 104.455 93.4469 104.459 93.4469 104.464C93.4469 104.469 93.4469 104.473 93.4469 104.478C93.4469 104.483 93.4469 104.488 93.4469 104.492C93.4469 104.497 93.4469 104.502 93.4469 104.506C93.4469 104.511 93.4469 104.516 93.4469 104.521C93.4469 104.525 93.4469 104.53 93.4469 104.535C93.4469 104.539 93.4469 104.544 93.4469 104.549C93.4469 104.554 93.4469 104.558 93.4469 104.563C93.4469 104.568 93.4469 104.573 93.4469 104.577C93.4469 104.582 93.4469 104.587 93.4469 104.592C93.4469 104.596 93.4469 104.601 93.4469 104.606C93.4469 104.611 93.4469 104.615 93.4469 104.62C93.4469 104.625 93.4469 104.63 93.4469 104.634C93.4469 104.639 93.4469 104.644 93.4469 104.649C93.4469 104.654 93.4469 104.658 93.4469 104.663C93.4469 104.668 93.4469 104.673 93.4469 104.678C93.4469 104.682 93.4469 104.687 93.4469 104.692C93.4469 104.697 93.4469 104.702 93.4469 104.706C93.4469 104.711 93.4469 104.716 93.4469 104.721C93.4469 104.726 93.4469 104.73 93.4469 104.735C93.4469 104.74 93.4469 104.745 93.4469 104.75C93.4469 104.755 93.4469 104.759 93.4469 104.764C93.4469 104.769 93.4469 104.774 93.4469 104.779C93.4469 104.784 93.4469 104.789 93.4469 104.793C93.4469 104.798 93.4469 104.803 93.4469 104.808C93.4469 104.813 93.4469 104.818 93.4469 104.823C93.4469 104.827 93.4469 104.832 93.4469 104.837C93.4469 104.842 93.4469 104.847 93.4469 104.852C93.4469 104.857 93.4469 104.862 93.4469 104.866C93.4469 104.871 93.4469 104.876 93.4469 104.881C93.4469 104.886 93.4469 104.891 93.4469 104.896C93.4469 104.901 93.4469 104.906 93.4469 104.91C93.4469 104.915 93.4469 104.92 93.4469 104.925C93.4469 104.93 93.4469 104.935 93.4469 104.94C93.4469 104.945 93.4469 104.95 93.4469 104.955C93.4469 104.96 93.4469 104.965 93.4469 104.97C93.4469 104.974 93.4469 104.979 93.4469 104.984C93.4469 104.989 93.4469 104.994 93.4469 104.999C93.4469 105.004 93.4469 105.009 93.4469 105.014C93.4469 105.019 93.4469 105.024 93.4469 105.029C93.4469 105.034 93.4469 105.039 93.4469 105.044C93.4469 105.049 93.4469 105.054 93.4469 105.059C93.4469 105.064 93.4469 105.069 93.4469 105.074C93.4469 105.078 93.4469 105.083 93.4469 105.088C93.4469 105.093 93.4469 105.098 93.4469 105.103C93.4469 105.108 93.4469 105.113 93.4469 105.118C93.4469 105.123 93.4469 105.128 93.4469 105.133C93.4469 105.138 93.4469 105.143 93.4469 105.148C93.4469 105.153 93.4469 105.158 93.4469 105.163C93.4469 105.168 93.4469 105.173 93.4469 105.178C93.4469 105.183 93.4469 105.188 93.4469 105.193C93.4469 105.198 93.4469 105.204 93.4469 105.209C93.4469 105.214 93.4469 105.219 93.4469 105.224C93.4469 105.229 93.4469 105.234 93.4469 105.239C93.4469 105.244 93.4469 105.249 93.4469 105.254C93.4469 105.259 93.4469 105.264 93.4469 105.269C93.4469 105.274 93.4469 105.279 93.4469 105.284C93.4469 105.289 93.4469 105.294 93.4469 105.299C93.4469 105.304 93.4469 105.309 93.4469 105.315C93.4469 105.32 93.4469 105.325 93.4469 105.33C93.4469 105.335 93.4469 105.34 93.4469 105.345C93.4469 105.35 93.4469 105.355 93.4469 105.36C93.4469 105.365 93.4469 105.37 93.4469 105.375C93.4469 105.381 93.4469 105.386 93.4469 105.391C93.4469 105.396 93.4469 105.401 93.4469 105.406C93.4469 105.411 93.4469 105.416 93.4469 105.421C93.4469 105.426 93.4469 105.431 93.4469 105.437C93.4469 105.442 93.4469 105.447 93.4469 105.452C93.4469 105.457 93.4469 105.462 93.4469 105.467C93.4469 105.472 93.4469 105.477 93.4469 105.483C93.4469 105.488 93.4469 105.493 93.4469 105.498C93.4469 105.503 93.4469 105.508 93.4469 105.513C93.4469 105.518 93.4469 105.524 93.4469 105.529C93.4469 105.534 93.4469 105.539 93.4469 105.544C93.4469 105.549 93.4469 105.554 93.4469 105.56C93.4469 105.565 93.4469 105.57 93.4469 105.575C93.4469 105.58 93.4469 105.585 93.4469 105.591C93.4469 105.596 93.4469 105.601 93.4469 105.606C93.4469 105.611 93.4469 105.616 93.4469 105.621C93.4469 105.627 93.4469 105.632 93.4469 105.637C93.4469 105.642 93.4469 105.647 93.4469 105.652C93.4469 105.658 93.4469 105.663 93.4469 105.668C93.4469 105.673 93.4469 105.678 93.4469 105.684C93.4469 105.689 93.4469 105.694 93.4469 105.699C93.4469 105.704 93.4469 105.709 93.4469 105.715C93.4469 105.72 93.4469 105.725 93.4469 105.73C93.4469 105.735 93.4469 105.741 93.4469 105.746C93.4469 105.751 93.4469 105.756 93.4469 105.761C93.4469 105.767 93.4469 105.772 93.4469 105.777C93.4469 105.782 93.4469 105.787 93.4469 105.793C93.4469 105.798 93.4469 105.803 93.4469 105.808C93.4469 105.814 93.4469 105.819 93.4469 105.824C93.4469 105.829 93.4469 105.834 93.4469 105.84C93.4469 105.845 93.4469 105.85 93.4469 105.855C93.4469 105.861 93.4469 105.866 93.4469 105.871C93.4469 105.876 93.4469 105.881 93.4469 105.887C93.4469 105.892 93.4469 105.897 93.4469 105.902C93.4469 105.908 93.4469 105.913 93.4469 105.918C93.4469 105.923 93.4469 105.929 93.4469 105.934C93.4469 105.939 93.4469 105.944 93.4469 105.95C93.4469 105.955 93.4469 105.96 93.4469 105.965C93.4469 105.971 93.4469 105.976 93.4469 105.981C93.4469 105.986 93.4469 105.992 93.4469 105.997C93.4469 106.002 93.4469 106.007 93.4469 106.013C93.4469 106.018 93.4469 106.023 93.4469 106.029C93.4469 106.034 93.4469 106.039 93.4469 106.044C93.4469 106.05 93.4469 106.055 93.4469 106.06C93.4469 106.065 93.4469 106.071 93.4469 106.076C93.4469 106.081 93.4469 106.087 93.4469 106.092C93.4469 106.097 93.4469 106.102 93.4469 106.108C93.4469 106.113 93.4469 106.118 93.4469 106.124C93.4469 106.129 93.4469 106.134 93.4469 106.139C93.4469 106.145 93.4469 106.15 93.4469 106.155C93.4469 106.161 93.4469 106.166 93.4469 106.171C93.4469 106.176 93.4469 106.182 93.4469 106.187C93.4469 106.192 93.4469 106.198 93.4469 106.203C93.4469 106.208 93.4469 106.214 93.4469 106.219C93.4469 106.224 93.4469 106.23 93.4469 106.235C93.4469 106.24 93.4469 106.245 93.4469 106.251C93.4469 106.256 93.4469 106.261 93.4469 106.267C93.4469 106.272 93.4469 106.277 93.4469 106.283C93.4469 106.288 93.4469 106.293 93.4469 106.299C93.4469 106.304 93.4469 106.309 93.4469 106.315C93.4469 106.32 93.4469 106.325 93.4469 106.331C93.4469 106.336 93.4469 106.341 93.4469 106.347C93.4469 106.352 93.4469 106.357 93.4469 106.363C93.4469 106.368 93.4469 106.373 93.4469 106.379C93.4469 106.384 93.4469 106.389 93.4469 106.395C93.4469 106.4 93.4469 106.405 93.4469 106.411C93.4469 106.416 93.4469 106.421 93.4469 106.427C93.4469 106.432 93.4469 106.437 93.4469 106.443C93.4469 106.448 93.4469 106.453 93.4469 106.459C93.4469 106.464 93.4469 106.469 93.4469 106.475C93.4469 106.48 93.4469 106.485 93.4469 106.491C93.4469 106.496 93.4469 106.501 93.4469 106.507C93.4469 106.512 93.4469 106.518 93.4469 106.523C93.4469 106.528 93.4469 106.534 93.4469 106.539C93.4469 106.544 93.4469 106.55 93.4469 106.555C93.4469 106.56 93.4469 106.566 93.4469 106.571C93.4469 106.576 93.4469 106.582 93.4469 106.587C93.4469 106.593 93.4469 106.598 93.4469 106.603C93.4469 106.609 93.4469 106.614 93.4469 106.619C93.4469 106.625 93.4469 106.63 93.4469 106.636C93.4469 106.641 93.4469 106.646 93.4469 106.652C93.4469 106.657 93.4469 106.662 93.4469 106.668C93.4469 106.673 93.4469 106.679 93.4469 106.684C93.4469 106.689 93.4469 106.695 93.4469 106.7C93.4469 106.705 93.4469 106.711 93.4469 106.716C93.4469 106.722 93.4469 106.727 93.4469 106.732C93.4469 106.738 93.4469 106.743 93.4469 106.748C93.4469 106.754 93.4469 106.759 93.4469 106.765C93.4469 106.77 93.4469 106.775 93.4469 106.781C93.4469 106.786 93.4469 106.792 93.4469 106.797C93.4469 106.802 93.4469 106.808 93.4469 106.813C93.4469 106.819 93.4469 106.824 93.4469 106.829C93.4469 106.835 93.4469 106.84 93.4469 106.845C93.4469 106.851 93.4469 106.856 93.4469 106.862C93.4469 106.867 93.4469 106.872 93.4469 106.878C93.4469 106.883 93.4469 106.889 93.4469 106.894C93.4469 106.899 93.4469 106.905 93.4469 106.91C93.4469 106.916 93.4469 106.921 93.4469 106.926C93.4469 106.932 93.4469 106.937 93.4469 106.943C93.4469 106.948 93.4469 106.953 93.4469 106.959C93.4469 106.964 93.4469 106.97 93.4469 106.975C93.4469 106.98 93.4469 106.986 93.4469 106.991C93.4469 106.997 93.4469 107.002 93.4469 107.007C93.4469 107.013 93.4469 107.018 93.4469 107.024C93.4469 107.029 93.4469 107.035 93.4469 107.04C93.4469 107.045 93.4469 107.051 93.4469 107.056C93.4469 107.062 93.4469 107.067 93.4469 107.072C93.4469 107.078 93.4469 107.083 93.4469 107.089C93.4469 107.094 93.4469 107.099 93.4469 107.105C93.4469 107.11 93.4469 107.116 93.4469 107.121C93.4469 107.126 93.4469 107.132 93.4469 107.137C93.4469 107.143 93.4469 107.148 93.4469 107.154C93.4469 107.159 93.4469 107.164 93.4469 107.17C93.4469 107.175 93.4469 107.181 93.4469 107.186C93.4469 107.191 93.4469 107.197 93.4469 107.202C93.4469 107.208 93.4469 107.213 93.4469 107.219C93.4469 107.224 93.4469 107.229 93.4469 107.235C93.4469 107.24 93.4469 107.246 93.4469 107.251C93.4469 107.256 93.4469 107.262 93.4469 107.267C93.4469 107.273 93.4469 107.278 93.4469 107.284C93.4469 107.289 93.4469 107.294 93.4469 107.3C93.4469 107.305 93.4469 107.311 93.4469 107.316C93.4469 107.321 93.4469 107.327 93.4469 107.332C93.4469 107.338 93.4469 107.343 93.4469 107.349C93.4469 107.354 93.4469 107.359 93.4469 107.365C93.4469 107.37 93.4469 107.376 93.4469 107.381C93.4469 107.386 93.4469 107.392 93.4469 107.397C93.4469 107.403 93.4469 107.408 93.4469 107.414C93.4469 107.419 93.4469 107.424 93.4469 107.43C93.4469 107.435 93.4469 107.441 93.4469 107.446C93.4469 107.451 93.4469 107.457 93.4469 107.462C93.4469 107.468 93.4469 107.473 93.4469 107.479C93.4469 107.484 93.4469 107.489 93.4469 107.495C93.4469 107.5 93.4469 107.506 93.4469 107.511C93.4469 107.516 93.4469 107.522 93.4469 107.527C93.4469 107.533 93.4469 107.538 93.4469 107.544C93.4469 107.549 93.4469 107.554 93.4469 107.56C93.4469 107.565 93.4469 107.571 93.4469 107.576C93.4469 107.582 93.4469 107.587 93.4469 107.592C93.4469 107.598 93.4469 107.603 93.4469 107.609C93.4469 107.614 93.4469 107.619 93.4469 107.625C93.4469 107.63 93.4469 107.636 93.4469 107.641C93.4469 107.646 93.4469 107.652 93.4469 107.657C93.4469 107.663 93.4469 107.668 93.4469 107.674C93.4469 107.679 93.4469 107.684 93.4469 107.69C93.4469 107.695 93.4469 107.701 93.4469 107.706C93.4469 107.711 93.4469 107.717 93.4469 107.722C93.4469 107.728 93.4469 107.733 93.4469 107.739C93.4469 107.744 93.4469 107.749 93.4469 107.755C93.4469 107.76 93.4469 107.766 93.4469 107.771C93.4469 107.776 93.4469 107.782 93.4469 107.787C93.4469 107.793 93.4469 107.798 93.4469 107.803C93.4469 107.809 93.4469 107.814 93.4469 107.82C93.4469 107.825 93.4469 107.83 93.4469 107.836C93.4469 107.841 93.4469 107.847 93.4469 107.852C93.4469 107.857 93.4469 107.863 93.4469 107.868C93.4469 107.874 93.4469 107.879 93.4469 107.884C93.4469 107.89 93.4469 107.895 93.4469 107.901C93.4469 107.906 93.4469 107.911 93.4469 107.917C93.4469 107.922 93.4469 107.928 93.4469 107.933C93.4469 107.938 93.4469 107.944 93.4469 107.949C93.4469 107.955 93.4469 107.96 93.4469 107.965C93.4469 107.971 93.4469 107.976 93.4469 107.982C93.4469 107.987 93.4469 107.992 93.4469 107.998C93.4469 108.003 93.4469 108.009 93.4469 108.014C93.4469 108.019 93.4469 108.025 93.4469 108.03C93.4469 108.036 93.4469 108.041 93.4469 108.046C93.4469 108.052 93.4469 108.057 93.4469 108.062C93.4469 108.068 93.4469 108.073 93.4469 108.079C93.4469 108.084 93.4469 108.089 93.4469 108.095C93.4469 108.1 93.4469 108.106 93.4469 108.111C93.4469 108.116 93.4469 108.122 93.4469 108.127C93.4469 108.132 93.4469 108.138 93.4469 108.143C93.4469 108.149 93.4469 108.154 93.4469 108.159C93.4469 108.165 93.4469 108.17 93.4469 108.175C93.4469 108.181 93.4469 108.186 93.4469 108.192C93.4469 108.197 93.4469 108.202 93.4469 108.208C93.4469 108.213 93.4469 108.218 93.4469 108.224C93.4469 108.229 93.4469 108.235 93.4469 108.24C93.4469 108.245 93.4469 108.251 93.4469 108.256C93.4469 108.261 93.4469 108.267 93.4469 108.272C93.4469 108.277 93.4469 108.283 93.4469 108.288C93.4469 108.294 93.4469 108.299 93.4469 108.304C93.4469 108.31 93.4469 108.315 93.4469 108.32C93.4469 108.326 93.4469 108.331 93.4469 108.336C93.4469 108.342 93.4469 108.347 93.4469 108.352C93.4469 108.358 93.4469 108.363 93.4469 108.368C93.4469 108.374 93.4469 108.379 93.4469 108.385C93.4469 108.39 93.4469 108.395 93.4469 108.401C93.4469 108.406 93.4469 108.411 93.4469 108.417C93.4469 108.422 93.4469 108.427 93.4469 108.433C93.4469 108.438 93.4469 108.443 93.4469 108.449C93.4469 108.454 93.4469 108.459 93.4469 108.465C93.4469 108.47 93.4469 108.475 93.4469 108.481C93.4469 108.486 93.4469 108.491 93.4469 108.497C93.4469 108.502 93.4469 108.507 93.4469 108.513C93.4469 108.518 93.4469 108.523 93.4469 108.529C93.4469 108.534 93.4469 108.539 93.4469 108.545C93.4469 108.55 93.4469 108.555 93.4469 108.56C93.4469 108.566 93.4469 108.571 93.4469 108.576C93.4469 108.582 93.4469 108.587 93.4469 108.592C93.4469 108.598 93.4469 108.603 93.4469 108.608C93.4469 108.614 93.4469 108.619 93.4469 108.624C93.4469 108.63 93.4469 108.635 93.4469 108.64C93.4469 108.645 93.4469 108.651 93.4469 108.656C93.4469 108.661 93.4469 108.667 93.4469 108.672C93.4469 108.677 93.4469 108.683 93.4469 108.688C93.4469 108.693 93.4469 108.698 93.4469 108.704C93.4469 108.709 93.4469 108.714 93.4469 108.72C93.4469 108.725 93.4469 108.73 93.4469 108.735C93.4469 108.741 93.4469 108.746 93.4469 108.751C93.4469 108.757 93.4469 108.762 93.4469 108.767C93.4469 108.772 93.4469 108.778 93.4469 108.783C93.4469 108.788 93.4469 108.793 93.4469 108.799C93.4469 108.804 93.4469 108.809 93.4469 108.815C93.4469 108.82 93.4469 108.825 93.4469 108.83C93.4469 108.836 93.4469 108.841 93.4469 108.846C93.4469 108.851 93.4469 108.857 93.4469 108.862C93.4469 108.867 93.4469 108.872 93.4469 108.878C93.4469 108.883 93.4469 108.888 93.4469 108.893C93.4469 108.899 93.4469 108.904 93.4469 108.909C93.4469 108.914 93.4469 108.92 93.4469 108.925C93.4469 108.93 93.4469 108.935 93.4469 108.941C93.4469 108.946 93.4469 108.951 93.4469 108.956C93.4469 108.961 93.4469 108.967 93.4469 108.972C93.4469 108.977 93.4469 108.982 93.4469 108.988C93.4469 108.993 93.4469 108.998 93.4469 109.003C93.4469 109.009 93.4469 109.014 93.4469 109.019C93.4469 109.024 93.4469 109.029 93.4469 109.035C93.4469 109.04 93.4469 109.045 93.4469 109.05C93.4469 109.055 93.4469 109.061 93.4469 109.066C93.4469 109.071 93.4469 109.076 93.4469 109.081C93.4469 109.087 93.4469 109.092 93.4469 109.097C93.4469 109.102 93.4469 109.107 93.4469 109.113C93.4469 109.118 93.4469 109.123 93.4469 109.128C93.4469 109.133 93.4469 109.139 93.4469 109.144C93.4469 109.149 93.4469 109.154 93.4469 109.159C93.4469 109.164 93.4469 109.17 93.4469 109.175C93.4469 109.18 93.4469 109.185 93.4469 109.19C93.4469 109.195 93.4469 109.201 93.4469 109.206C93.4469 109.211 93.4469 109.216 93.4469 109.221C93.4469 109.226 93.4469 109.232 93.4469 109.237C93.4469 109.242 93.4469 109.247 93.4469 109.252C93.4469 109.257 93.4469 109.263 93.4469 109.268C93.4469 109.273 93.4469 109.278 93.4469 109.283C93.4469 109.288 93.4469 109.293 93.4469 109.299C93.4469 109.304 93.4469 109.309 93.4469 109.314C93.4469 109.319 93.4469 109.324 93.4469 109.329C93.4469 109.334 93.4469 109.34 93.4469 109.345C93.4469 109.35 93.4469 109.355 93.4469 109.36C93.4469 109.365 93.4469 109.37 93.4469 109.375C93.4469 109.381 93.4469 109.386 93.4469 109.391C93.4469 109.396 93.4469 109.401 93.4469 109.406C93.4469 109.411 93.4469 109.416 93.4469 109.421C93.4469 109.426 93.4469 109.432 93.4469 109.437C93.4469 109.442 93.4469 109.447 93.4469 109.452C93.4469 109.457 93.4469 109.462 93.4469 109.467C93.4469 109.472 93.4469 109.477 93.4469 109.482C93.4469 109.488 93.4469 109.493 93.4469 109.498C93.4469 109.503 93.4469 109.508 93.4469 109.513C93.4469 109.518 93.4469 109.523 93.4469 109.528C93.4469 109.533 93.4469 109.538 93.4469 109.543C93.4469 109.548 93.4469 109.553 93.4469 109.558C93.4469 109.563 93.4469 109.568 93.4469 109.574C93.4469 109.579 93.4469 109.584 93.4469 109.589C93.4469 109.594 93.4469 109.599 93.4469 109.604C93.4469 109.609 93.4469 109.614 93.4469 109.619C93.4469 109.624 93.4469 109.629 93.4469 109.634C93.4469 109.639 93.4469 109.644 93.4469 109.649C93.4469 109.654 93.4469 109.659 93.4469 109.664C93.4469 109.669 93.4469 109.674 93.4469 109.679C93.4469 109.684 93.4469 109.689 93.4469 109.694C93.4469 109.699 93.4469 109.704 93.4469 109.709C93.4469 109.714 93.4469 109.719 93.4469 109.724C93.4469 109.729 93.4469 109.734 93.4469 109.739C93.4469 109.744 93.4469 109.749 93.4469 109.754C93.4469 109.759 93.4469 109.764 93.4469 109.769C93.4469 109.774 93.4469 109.779 93.4469 109.784C93.4469 109.789 93.4469 109.794 93.4469 109.799C93.4469 109.804 93.4469 109.809 93.4469 109.813C93.4469 109.818 93.4469 109.823 93.4469 109.828C93.4469 109.833 93.4469 109.838 93.4469 109.843C93.4469 109.848 93.4469 109.853 93.4469 109.858C93.4469 109.863 93.4469 109.868 93.4469 109.873C93.4469 109.878 93.4469 109.883 93.4469 109.888C93.4469 109.892 93.4469 109.897 93.4469 109.902C93.4469 109.907 93.4469 109.912 93.4469 109.917C93.4469 109.922 93.4469 109.927 93.4469 109.932C93.4469 109.937 93.4469 109.942 93.4469 109.946C93.4469 109.951 93.4469 109.956 93.4469 109.961C93.4469 109.966 93.4469 109.971 93.4469 109.976C93.4469 109.981 93.4469 109.986 93.4469 109.99C93.4469 109.995 93.4469 110 93.4469 110.005C93.4469 110.01 93.4469 110.015 93.4469 110.02C93.4469 110.024 93.4469 110.029 93.4469 110.034C93.4469 110.039 93.4469 110.044 93.4469 110.049C93.4469 110.054 93.4469 110.058 93.4469 110.063C93.4469 110.068 93.4469 110.073 93.4469 110.078C93.4469 110.083 93.4469 110.087 93.4469 110.092C93.4469 110.097 93.4469 110.102 93.4469 110.107C93.4469 110.112 93.4469 110.116 93.4469 110.121C93.4469 110.126 93.4469 110.131 93.4469 110.136C93.4469 110.14 93.4469 110.145 93.4469 110.15C93.4469 110.155 93.4469 110.16 93.4469 110.164C93.4469 110.169 93.4469 110.174 93.4469 110.179C93.4469 110.184 93.4469 110.188 93.4469 110.193C93.4469 110.198 93.4469 110.203 93.4469 110.207C93.4469 110.212 93.4469 110.217 93.4469 110.222C93.4469 110.227 93.4469 110.231 93.4469 110.236C93.4469 110.241 93.4469 110.246 93.4469 110.25C93.4469 110.255 93.4469 110.26 93.4469 110.265C93.4469 110.269 93.4469 110.274 93.4469 110.279C93.4469 110.283 93.4469 110.288 93.4469 110.293C93.4469 110.298 93.4469 110.302 93.4469 110.307H94.9469ZM86.6197 101.393L83.5293 106.028L84.7774 106.86L87.8677 102.225L86.6197 101.393ZM65.3913 140.658L67.4577 142.495L68.4543 141.374L66.3879 139.537L65.3913 140.658ZM91.3986 148.998L100.825 152.533L101.352 151.128L91.9253 147.594L91.3986 148.998ZM33.5591 151.193L38.6787 150.451L38.4636 148.966L33.344 149.708L33.5591 151.193ZM25.9411 152.08C28.6809 151.771 31.0213 151.467 33.5321 151.196L33.3709 149.705C30.8731 149.975 28.4643 150.286 25.7728 150.59L25.9411 152.08ZM86.8552 100.909L86.5729 101.473L87.9146 102.144L88.1969 101.579L86.8552 100.909ZM100.706 152.476L104.399 154.665L105.164 153.375L101.471 151.186L100.706 152.476ZM1.41841 167.288L0.956133 168.213L2.29777 168.884L2.76005 167.959L1.41841 167.288ZM100.564 151.295L92.8568 158.84L93.9062 159.912L101.613 152.367L100.564 151.295ZM90.0326 163.582L88.5868 168.642L90.0291 169.055L91.4749 163.994L90.0326 163.582ZM82.2299 167.395L83.0713 159.714L81.5803 159.551L80.7389 167.232L82.2299 167.395ZM80.1971 146.606L88.2107 148.109L88.4871 146.634L80.4736 145.132L80.1971 146.606ZM84.5758 155.207L88.9941 147.754L87.7038 146.989L83.2855 154.442L84.5758 155.207ZM84.9998 170.967C83.2644 170.718 82.039 169.138 82.2299 167.395L80.7389 167.232C80.4599 169.779 82.2507 172.088 84.7869 172.452L84.9998 170.967ZM94.2979 100.555C92.5302 97.726 88.3468 97.9247 86.8552 100.909L88.1969 101.579C89.1646 99.6433 91.8789 99.5144 93.0258 101.35L94.2979 100.555ZM105.784 53.7004C110.19 70.1972 108.706 87.9865 99.5954 102.331L100.862 103.135C110.239 88.3706 111.725 70.133 107.233 53.3134L105.784 53.7004ZM11.6614 62.0173C13.0623 54.3125 16.0867 47.0356 20.8149 40.8214L19.6212 39.9131C14.7365 46.333 11.6247 53.8343 10.1856 61.7489L11.6614 62.0173ZM10.7357 71.5257C10.7357 68.5871 11.0001 65.6544 11.5258 62.7632L10.05 62.4949C9.50823 65.4746 9.2357 68.4971 9.2357 71.5257H10.7357ZM45.1675 118.983C42.0812 119.351 38.9929 118.313 36.7548 116.156L35.714 117.236C38.2762 119.705 41.8116 120.893 45.3448 120.473L45.1675 118.983ZM45.3448 120.473C48.3544 120.114 51.1125 118.617 53.0528 116.289L51.9005 115.328C50.2056 117.362 47.7964 118.67 45.1675 118.983L45.3448 120.473ZM64.0349 113.974C64.0708 114.154 64.0889 114.336 64.0889 114.519H65.5889C65.5889 114.237 65.561 113.956 65.5058 113.68L64.0349 113.974ZM65.4078 113.19C64.536 108.831 60.709 105.694 56.264 105.694V107.194C59.994 107.194 63.2054 109.827 63.9369 113.484L65.4078 113.19ZM78.9714 113.794C80.6913 112.893 82.1173 111.519 83.0806 109.833L81.7783 109.089C80.9571 110.526 79.7415 111.698 78.2753 112.466L78.9714 113.794ZM69.6564 116.98C67.8065 117.949 65.5889 116.608 65.5889 114.519H64.0889C64.0889 117.735 67.5037 119.801 70.3524 118.309L69.6564 116.98ZM27.3896 113.64C27.5411 112.883 28.0811 112.262 28.8099 112.007L28.3144 110.591C27.085 111.022 26.1742 112.069 25.9187 113.346L27.3896 113.64ZM35.4187 99.4851C34.9731 100.428 34.8272 101.514 35.0881 102.558L36.5433 102.194C36.3744 101.518 36.4629 100.786 36.7748 100.126L35.4187 99.4851ZM38.8126 80.421C40.1375 84.7276 39.9035 89.3633 38.1043 93.4866L39.4791 94.0865C41.4246 89.628 41.6746 84.6226 40.2463 79.98L38.8126 80.421ZM83.0713 159.714C83.2458 158.122 83.7588 156.585 84.5758 155.207L83.2855 154.442C82.3594 156.004 81.778 157.746 81.5803 159.551L83.0713 159.714ZM31.2124 74.9433C27.8986 74.3219 24.5908 75.3563 21.9146 77.2461L22.7798 78.4714C25.2067 76.7577 28.1096 75.8876 30.9359 76.4176L31.2124 74.9433ZM23.5104 70.5596C22.3295 71.5043 21.4611 72.7833 21.0185 74.2294L22.4528 74.6683C22.8071 73.5108 23.5022 72.4871 24.4474 71.7309L23.5104 70.5596ZM16.2863 153.108C9.832 155.962 4.57445 160.976 1.41841 167.288L2.76005 167.959C5.76006 161.959 10.7577 157.192 16.8929 154.479L16.2863 153.108ZM64.1952 68.2212C62.1336 67.4481 59.8998 67.2539 57.7357 67.6596L58.0121 69.1339C59.9071 68.7786 61.8633 68.9487 63.6686 69.6257L64.1952 68.2212ZM104.399 154.665C109.933 157.946 114.454 162.691 117.464 168.377L118.79 167.675C115.65 161.745 110.935 156.797 105.164 153.375L104.399 154.665ZM63.6154 75.9952C67.2157 77.8411 70.7866 73.4693 68.2592 70.31L67.0879 71.247C68.6053 73.1439 66.4614 75.7687 64.2998 74.6604L63.6154 75.9952ZM25.7728 150.59C22.5111 150.958 19.3023 151.774 16.2863 153.108L16.8929 154.479C19.756 153.213 22.815 152.433 25.9411 152.08L25.7728 150.59ZM60.011 74.8424C60.6223 74.7065 61.262 74.7885 61.8193 75.0743L62.5037 73.7395C61.6352 73.2942 60.6383 73.1663 59.6856 73.3781L60.011 74.8424ZM47.8732 72.7306C47.8809 75.1998 50.1691 77.0294 52.5795 76.4938L52.2541 75.0295C50.7786 75.3574 49.3779 74.2374 49.3732 72.7259L47.8732 72.7306ZM49.3732 72.7259C49.3696 71.5839 50.1818 70.6021 51.3043 70.3917L51.0278 68.9174C49.1942 69.2612 47.8673 70.865 47.8732 72.7306L49.3732 72.7259ZM91.9253 147.594C90.8091 147.175 89.6588 146.854 88.4871 146.634L88.2107 148.109C89.2971 148.312 90.3637 148.61 91.3986 148.998L91.9253 147.594ZM62.2647 51.3583C66.1659 51.019 70.0175 52.422 72.7865 55.191L73.8471 54.1303C70.7648 51.048 66.4774 49.4863 62.1347 49.8639L62.2647 51.3583ZM77.6471 146.369C78.5026 146.369 79.3563 146.448 80.1971 146.606L80.4736 145.132C79.5416 144.957 78.5954 144.869 77.6471 144.869V146.369ZM30.7062 55.9162C32.494 54.5753 34.6217 53.762 36.8481 53.5684L36.7181 52.074C34.2126 52.2919 31.8181 53.2072 29.8062 54.7162L30.7062 55.9162ZM67.4577 142.495C70.2652 144.991 73.8909 146.369 77.6471 146.369V144.869C74.2582 144.869 70.9872 143.625 68.4543 141.374L67.4577 142.495ZM26.471 61.9002C27.2217 59.5115 28.703 57.4185 30.7062 55.9162L29.8062 54.7162C27.5519 56.4069 25.8849 58.7623 25.04 61.4505L26.471 61.9002ZM20.3852 114.207C21.6703 117.689 26.6672 117.252 27.3896 113.64L25.9187 113.346C25.4875 115.502 22.5439 115.724 21.7924 113.688L20.3852 114.207ZM94.9469 102.816C94.9469 102.016 94.7218 101.233 94.2979 100.555L93.0258 101.35C93.3013 101.791 93.4469 102.298 93.4469 102.816H94.9469ZM17.2907 132.909C16.0704 130.225 15.7684 127.213 16.4316 124.339L14.97 124.002C14.2327 127.197 14.5684 130.545 15.9252 133.53L17.2907 132.909ZM68.2592 70.31C67.8367 69.7819 67.2793 69.3777 66.6461 69.1402L66.1194 70.5447C66.4996 70.6873 66.8342 70.93 67.0879 71.247L68.2592 70.31ZM15.9063 93.4305C12.506 86.6292 10.7357 79.1296 10.7357 71.5257H9.2357C9.2357 79.3625 11.0602 87.0917 14.5647 94.1012L15.9063 93.4305ZM77.9393 61.9704C77.4088 59.0002 75.9806 56.2639 73.8471 54.1303L72.7865 55.191C74.7031 57.1077 75.9861 59.5658 76.4626 62.2341L77.9393 61.9704ZM35.0881 102.558C35.422 103.893 36.3909 104.979 37.6797 105.462L38.2064 104.058C37.3793 103.748 36.7576 103.051 36.5433 102.194L35.0881 102.558ZM22.7836 138.97C20.3666 137.57 18.4464 135.452 17.2907 132.909L15.9252 133.53C17.21 136.357 19.3448 138.712 22.032 140.268L22.7836 138.97ZM18.7927 92.7768C19.0816 87.5773 20.0175 82.434 21.5789 77.4661L20.1479 77.0163C18.5492 82.1032 17.5908 87.3696 17.295 92.6936L18.7927 92.7768ZM88.5868 168.642C88.1404 170.205 86.6085 171.198 84.9998 170.967L84.7869 172.452C87.1379 172.789 89.3766 171.338 90.0291 169.055L88.5868 168.642ZM32.3454 70.8831C35.4738 71.2741 37.8214 73.9335 37.8214 77.0862H39.3214C39.3214 73.177 36.4105 69.8796 32.5315 69.3947L32.3454 70.8831ZM67.7029 138.277C61.5314 140.268 56.1917 144.244 52.5155 149.586L53.7511 150.436C57.2397 145.367 62.3069 141.594 68.1634 139.705L67.7029 138.277ZM92.8568 158.84C91.5199 160.149 90.5466 161.783 90.0326 163.582L91.4749 163.994C91.9174 162.446 92.7553 161.039 93.9062 159.912L92.8568 158.84ZM24.4474 71.7309C25.7158 70.7163 27.3405 70.2575 28.9523 70.459L29.1383 68.9705C27.1248 68.7188 25.095 69.292 23.5104 70.5596L24.4474 71.7309ZM85.7485 120.15C83.4043 128.589 76.9774 135.285 68.642 137.974L69.1025 139.402C77.9177 136.558 84.7147 129.476 87.1937 120.551L85.7485 120.15Z" fill="#F077D8"/>
<rect x="52.8242" y="82.8711" width="17.7623" height="11.4933" rx="5.74664" stroke="#F077D8" stroke-width="1.5"/>
<rect x="20.4346" y="82.8711" width="17.7623" height="11.4933" rx="5.74664" stroke="#F077D8" stroke-width="1.5"/>
<circle cx="57.792" cy="89.4983" r="4.05468" stroke="#F077D8" stroke-width="1.5"/>
<circle cx="25.2393" cy="89.4983" r="4.05468" stroke="#F077D8" stroke-width="1.5"/>
</svg>
