<svg width="33" height="27" viewBox="0 0 33 27" fill="none" xmlns="http://www.w3.org/2000/svg">
<path d="M26.8544 13.9092C26.8544 14.592 26.8544 22.211 26.8185 22.6902C26.7586 24.6908 26.6867 24.7986 24.6621 24.7986H23.2246C22.973 24.7986 22.7813 24.8346 22.7813 25.0262V25.9726C22.7813 26.2002 22.8772 26.2721 23.0329 26.2721C23.1886 26.2721 27.5971 26.1523 27.8846 26.1523C28.1602 26.1523 32.4249 26.2721 32.7124 26.2721C32.928 26.2721 32.9999 26.2002 32.9999 25.9726V25.1101C32.9999 24.9184 32.9041 24.8106 32.6885 24.8106H31.5624C29.5258 24.8106 29.406 24.5471 29.3701 22.5824C29.3701 22.0912 29.3342 14.1009 29.3342 13.6456V12.0643C29.3342 7.20061 29.43 1.2827 29.43 0.947268C29.43 0.647778 29.3941 0.420166 29.2144 0.420166C29.0586 0.420166 28.9269 0.539962 28.7711 0.647778L22.2902 5.14013C22.0745 5.29586 22.0386 5.43961 22.0985 5.59535L22.3501 6.27819C22.41 6.43392 22.5417 6.43392 22.6615 6.39798L24.8538 5.53545C25.3569 5.34378 25.8241 5.23596 26.1117 5.23596C26.7106 5.23596 26.8304 6.06255 26.8664 7.34437C26.9023 10.3273 26.8664 12.0883 26.8664 12.5795L26.8544 13.9092ZM6.44117 13.9092C6.44117 14.592 6.44117 22.211 6.47711 22.6902C6.53701 24.6908 6.60888 24.7986 8.63343 24.7986H10.071C10.3226 24.7986 10.5142 24.8346 10.5142 25.0262V25.9726C10.5142 26.2002 10.4184 26.2721 10.2627 26.2721C10.1069 26.2721 5.69843 26.1523 5.41092 26.1523C5.13539 26.1523 0.870657 26.2721 0.583146 26.2721C0.367514 26.2721 0.307617 26.2002 0.307617 25.9726V25.1101C0.307617 24.9184 0.403453 24.8106 0.619085 24.8106H1.74517C3.7817 24.8106 3.90149 24.5471 3.93743 22.5824C3.93743 22.0912 3.97337 14.1009 3.97337 13.6456V12.0643C3.97337 7.20061 3.87753 1.2827 3.87753 0.947268C3.87753 0.647778 3.91347 0.420166 4.09317 0.420166C4.2489 0.420166 4.3687 0.539962 4.53641 0.647778L11.0174 5.14013C11.233 5.29586 11.2689 5.43961 11.209 5.59535L10.9575 6.27819C10.8976 6.43392 10.7658 6.43392 10.646 6.39798L8.45374 5.53545C7.9506 5.34378 7.48339 5.23596 7.19588 5.23596C6.5969 5.23596 6.47711 6.06255 6.44117 7.34437C6.40523 10.3273 6.44117 12.0883 6.44117 12.5795V13.9092Z" fill="white"/>
</svg>
